nColumns=19
nRows=80
DataType=double
version=3
OpenSimVersion=4.1
endheader
time	ground_force_1_vx	ground_force_1_vy	ground_force_1_vz	ground_force_1_px	ground_force_1_py	ground_force_1_pz	ground_force_1_mx	ground_force_1_my	ground_force_1_mz	ground_force_2_vx	ground_force_2_vy	ground_force_2_vz	ground_force_2_px	ground_force_2_py	ground_force_2_pz	ground_force_2_mx	ground_force_2_my	ground_force_2_mz
0.025	0	0	0	-0.00228429	0	-4.14208e-05	0	0	0	252.41	1343.39	-91.9112	0.955975	0	-0.319719	-0	22.6063	-0
0.033333	0	0	0	-0.00228429	0	-4.1421e-05	0	0	0	250.52	1090.77	-79.8797	0.931009	0	-0.314129	-0	16.9448	-0
0.041667	0	0	0	-0.00228429	0	-4.14217e-05	0	0	0	245.238	822.206	-65.5971	0.89742	0	-0.309029	-0	11.1452	-0
0.05	0	0	0	-0.0022843	0	-4.14229e-05	0	0	0	219.133	575.623	-50.4358	0.863685	0	-0.305412	-0	5.74002	-0
0.058333	0	0	0	-0.00228431	0	-4.14246e-05	0	0	0	170.101	373.919	-36.0227	0.839597	0	-0.302536	-0	1.20043	-0
0.066667	0	0	0	-0.00228431	0	-4.14267e-05	0	0	0	114.622	223.885	-24.3394	0.830162	0	-0.2991	0	-2.14489	0
0.075	0	0	0	-0.00228432	0	-4.14293e-05	0	0	0	67.8674	121.044	-16.4311	0.830231	0	-0.293867	0	-4.15947	0
0.083333	0	0	0	-0.00228434	0	-4.14323e-05	0	0	0	35.3138	58.1706	-11.2828	0.820083	0	-0.281075	0	-4.90454	0
0.091667	0	0	0	-0.00228435	0	-4.14359e-05	0	0	0	14.0331	25.2042	-6.97219	0.800282	0	-0.238519	0	-4.6009	0
0.1	0	0	0	-0.00228437	0	-4.14399e-05	0	0	0	2.35078	10.9275	-2.94756	0.877348	0	-0.110521	0	-3.5676	0
0.108333	0	0	0	-0.00228439	0	-4.14444e-05	0	0	0	0	0	0	-0.00228438	0	-4.14437e-05	0	0	0
0.116667	0	0	0	-0.00228441	0	-4.14493e-05	0	0	0	0	0	0	-0.0022844	0	-4.14485e-05	0	0	0
0.125	0	0	0	-0.00228443	0	-4.14547e-05	0	0	0	0	0	0	-0.00228442	0	-4.14537e-05	0	0	0
0.133333	0	0	0	-0.00228445	0	-4.14606e-05	0	0	0	0	0	0	-0.00228445	0	-4.14594e-05	0	0	0
0.141667	0	0	0	-0.00228448	0	-4.14669e-05	0	0	0	0	0	0	-0.00228447	0	-4.14656e-05	0	0	0
0.15	0	0	0	-0.00228451	0	-4.14738e-05	0	0	0	0	0	0	-0.0022845	0	-4.14722e-05	0	0	0
0.158333	0	0	0	-0.00228454	0	-4.1481e-05	0	0	0	0	0	0	-0.00228453	0	-4.14793e-05	0	0	0
0.166667	0	0	0	-0.00228457	0	-4.14888e-05	0	0	0	0	0	0	-0.00228456	0	-4.14868e-05	0	0	0
0.175	0	0	0	-0.0022846	0	-4.1497e-05	0	0	0	0	0	0	-0.00228459	0	-4.14947e-05	0	0	0
0.183333	0	0	0	-0.00228464	0	-4.15056e-05	0	0	0	0	0	0	-0.00228462	0	-4.15032e-05	0	0	0
0.191667	0.578588	12.1209	-3.72061	1.07628	0	-0.159951	0	-4.64319	0	0	0	0	-0.00228466	0	-4.1512e-05	0	0	0
0.2	-6.29725	24.5441	-9.68138	1.26239	0	-0.225879	0	-3.10775	0	0	0	0	-0.00228469	0	-4.15213e-05	0	0	0
0.208333	-25.5023	64.8482	-20.0271	1.37205	0	-0.247999	0	-0.52631	0	0	0	0	-0.00228473	0	-4.1531e-05	0	0	0
0.216667	-68.8698	170.932	-34.63	1.39864	0	-0.252737	-0	2.61646	-0	0	0	0	-0.00228477	0	-4.15412e-05	0	0	0
0.225	-136.278	366.921	-50.8403	1.40018	0	-0.25521	-0	5.5712	-0	0	0	0	-0.00228482	0	-4.15518e-05	0	0	0
0.233333	-191.106	627.205	-63.0168	1.38696	0	-0.258536	-0	7.52478	-0	0	0	0	-0.00228486	0	-4.15629e-05	0	0	0
0.241667	-199.752	915.976	-64.3442	1.35444	0	-0.263311	-0	7.87436	-0	0	0	0	-0.00228491	0	-4.15744e-05	0	0	0
0.25	-193.61	1209.49	-49.9282	1.31235	0	-0.268867	-0	6.46966	-0	0	0	0	-0.00228496	0	-4.15863e-05	0	0	0
0.258333	-209.988	1465.03	-20.657	1.27587	0	-0.273653	-0	3.70628	-0	0	0	0	-0.00228501	0	-4.15987e-05	0	0	0
0.266667	-235.59	1655.02	13.5455	1.24618	0	-0.276965	-0	0.40051	-0	0	0	0	-0.00228506	0	-4.16115e-05	0	0	0
0.275	-238.682	1790.21	37.8466	1.21651	0	-0.279454	0	-2.52286	0	0	0	0	-0.00228511	0	-4.16247e-05	0	0	0
0.283333	-201.067	1890.06	44.3552	1.18249	0	-0.281578	0	-4.38591	0	0	0	0	-0.00228517	0	-4.16383e-05	0	0	0
0.291667	-138.054	1956.44	38.5864	1.1466	0	-0.283053	0	-4.9721	0	0	0	0	-0.00228522	0	-4.16524e-05	0	0	0
0.3	-73.3608	1980.85	31.9765	1.11206	0	-0.283419	0	-4.50659	0	0	0	0	-0.00228528	0	-4.16669e-05	0	0	0
0.308333	-7.81195	1956.54	29.8665	1.07788	0	-0.282899	0	-3.46261	0	0	0	0	-0.00228534	0	-4.16818e-05	0	0	0
0.316667	65.4438	1876.23	29.4641	1.04252	0	-0.282604	0	-2.33663	0	0	0	0	-0.0022854	0	-4.16971e-05	0	0	0
0.325	146.649	1736.51	27.6902	1.00552	0	-0.283258	0	-1.49429	0	0	0	0	-0.00228546	0	-4.17129e-05	0	0	0
0.333333	222.315	1545.93	26.0806	0.967807	0	-0.284389	0	-1.10363	0	0	0	0	-0.00228553	0	-4.1729e-05	0	0	0
0.341667	273.589	1320.41	26.9462	0.931487	0	-0.284942	0	-1.13513	0	0	0	0	-0.0022856	0	-4.17456e-05	0	0	0
0.35	292.468	1073.24	28.4982	0.897508	0	-0.284584	0	-1.41742	0	0	0	0	-0.00228566	0	-4.17626e-05	0	0	0
0.358333	278.068	817.333	26.5808	0.865939	0	-0.283881	0	-1.73495	0	0	0	0	-0.00228573	0	-4.17799e-05	0	0	0
0.366667	237.414	574.235	20.0144	0.836372	0	-0.283179	0	-1.92581	0	0	0	0	-0.00228581	0	-4.17977e-05	0	0	0
0.375	181.833	366.045	11.8909	0.810008	0	-0.28196	0	-1.92989	0	0	0	0	-0.00228588	0	-4.18159e-05	0	0	0
0.383333	124.395	207.324	5.81676	0.790113	0	-0.278451	0	-1.77293	0	0	0	0	-0.00228595	0	-4.18345e-05	0	0	0
0.391667	75.202	103.345	2.63331	0.785369	0	-0.268681	0	-1.51822	0	0	0	0	-0.00228603	0	-4.18534e-05	0	0	0
0.4	38.6761	45.7935	1.08013	0.825859	0	-0.247528	0	-1.22755	0	0	0	0	-0.00228611	0	-4.18728e-05	0	0	0
0.408333	15.8509	19.1048	0.13095	0.95861	0	-0.204934	0	-0.947778	0	0	0	0	-0.00228619	0	-4.18925e-05	0	0	0
0.416667	0	0	0	-0.00228637	0	-4.19274e-05	0	0	0	0	0	0	-0.00228627	0	-4.19127e-05	0	0	0
0.425	0	0	0	-0.00228645	0	-4.19485e-05	0	0	0	0	0	0	-0.00228635	0	-4.19332e-05	0	0	0
0.433333	0	0	0	-0.00228654	0	-4.197e-05	0	0	0	0	0	0	-0.00228644	0	-4.19541e-05	0	0	0
0.441667	0	0	0	-0.00228663	0	-4.19919e-05	0	0	0	0	0	0	-0.00228652	0	-4.19753e-05	0	0	0
0.45	0	0	0	-0.00228672	0	-4.20142e-05	0	0	0	0	0	0	-0.00228661	0	-4.1997e-05	0	0	0
0.458333	0	0	0	-0.00228682	0	-4.20368e-05	0	0	0	0	0	0	-0.0022867	0	-4.2019e-05	0	0	0
0.466667	0	0	0	-0.00228691	0	-4.20599e-05	0	0	0	0	0	0	-0.00228679	0	-4.20413e-05	0	0	0
0.475	0	0	0	-0.00228701	0	-4.20833e-05	0	0	0	0	0	0	-0.00228688	0	-4.2064e-05	0	0	0
0.483333	0	0	0	-0.00228711	0	-4.21071e-05	0	0	0	0	0	0	-0.00228697	0	-4.20871e-05	0	0	0
0.491667	0	0	0	-0.0022872	0	-4.21312e-05	0	0	0	0	0	0	-0.00228706	0	-4.21106e-05	0	0	0
0.5	0	0	0	-0.0022873	0	-4.21557e-05	0	0	0	0	0	0	-0.00228716	0	-4.21343e-05	0	0	0
0.508333	0	0	0	-0.00228741	0	-4.21805e-05	0	0	0	0	0	0	-0.00228726	0	-4.21585e-05	0	0	0
0.516667	0	0	0	-0.00228751	0	-4.22057e-05	0	0	0	0	0	0	-0.00228736	0	-4.21829e-05	0	0	0
0.525	0	0	0	-0.00228762	0	-4.22313e-05	0	0	0	-0.0804921	15.5459	-0.659899	1.32745	0	-0.302955	-0	2.66176	-0
0.533333	0	0	0	-0.00228772	0	-4.22572e-05	0	0	0	-12.5117	45.7691	-0.0251689	1.36081	0	-0.354316	-0	1.27981	-0
0.541667	0	0	0	-0.00228783	0	-4.22834e-05	0	0	0	-44.421	130.108	5.41931	1.37108	0	-0.365195	0	-0.887523	0
0.55	0	0	0	-0.00228794	0	-4.231e-05	0	0	0	-103.125	301.445	19.0611	1.3729	0	-0.362905	0	-3.39375	0
0.558333	0	0	0	-0.00228805	0	-4.23369e-05	0	0	0	-168.477	549.526	40.011	1.36614	0	-0.356589	0	-5.51939	0
0.566667	0	0	0	-0.00228816	0	-4.23641e-05	0	0	0	-199.882	830.062	58.6274	1.34247	0	-0.3499	0	-6.47607	0
0.575	0	0	0	-0.00228827	0	-4.23917e-05	0	0	0	-197.657	1122.2	60.5098	1.30196	0	-0.344336	0	-5.71131	0
0.583333	0	0	0	-0.00228839	0	-4.24196e-05	0	0	0	-196.64	1405.45	39.3752	1.26027	0	-0.340037	0	-3.17737	0
0.591667	0	0	0	-0.0022885	0	-4.24477e-05	0	0	0	-198.665	1644.53	3.81459	1.22568	0	-0.336054	-0	0.598232	-0
0.6	0	0	0	-0.00228862	0	-4.24762e-05	0	0	0	-182.552	1823.89	-30.3883	1.19372	0	-0.332394	-0	4.70372	-0
0.608333	0	0	0	-0.00228874	0	-4.25051e-05	0	0	0	-140.034	1945.33	-51.7077	1.16018	0	-0.329691	-0	8.19953	-0
0.616667	0	0	0	-0.00228886	0	-4.25342e-05	0	0	0	-82.75	2009.63	-57.5572	1.12656	0	-0.328051	-0	10.4543	-0
0.625	0	0	0	-0.00228898	0	-4.25636e-05	0	0	0	-27.02	2016.72	-52.7097	1.09552	0	-0.32719	-0	11.3094	-0
0.633333	0	0	0	-0.0022891	0	-4.25933e-05	0	0	0	26.586	1971.28	-44.9743	1.06616	0	-0.326578	-0	11.0294	-0
0.641667	0	0	0	-0.00228922	0	-4.26232e-05	0	0	0	79.8585	1877.36	-40.3016	1.03688	0	-0.325826	-0	10.0991	-0
0.65	0	0	0	-0.00228935	0	-4.26535e-05	0	0	0	125.092	1733.51	-39.9462	1.00824	0	-0.324711	-0	8.98657	-0
0.658333	0	0	0	-0.00228947	0	-4.2684e-05	0	0	0	158.932	1539.6	-41.7115	0.980571	0	-0.322987	-0	7.97759	-0
0.666667	0	0	0	-0.0022896	0	-4.27148e-05	0	0	0	185.558	1301.85	-43.2703	0.952035	0	-0.320835	-0	7.12592	-0
0.675	0	0	0	-0.00228973	0	-4.27459e-05	0	0	0	208.069	1033.25	-43.4583	0.919088	0	-0.318912	-0	6.30759	-0
0.683333	0	0	0	-0.00228986	0	-4.27773e-05	0	0	0	215.608	758.989	-41.214	0.881073	0	-0.317558	-0	5.33486	-0
